<?xml version="1.0" encoding="utf-8"?>
<!DOCTYPE svg PUBLIC "-//W3C//DTD SVG 1.0//EN" "http://www.w3.org/TR/2001/REC-SVG-20010904/DTD/svg10.dtd">
<svg version="1.0" xmlns="http://www.w3.org/2000/svg" width="74px" height="83px" viewBox="0 0 74 83" preserveAspectRatio="xMidYMid meet">
 <g fill="#fefeff">
  <path d="M0 41.50 l0 -41.50 37 0 37 0 0 41.50 0 41.50 -37 0 -37 0 0 -41.50z m56.80 7.50 c-0.10 -11.40 -0.40 -21.70 -0.55 -22.90 l-0.35 -2.10 2.90 0 c3.80 -0.05 6.75 -0.70 7.30 -1.70 0.25 -0.45 0.75 -0.80 1.15 -0.80 0.85 0 2.65 -2.25 3.05 -3.80 0.40 -1.55 -1.55 -4.05 -3.65 -4.75 -2.85 -0.90 -7.10 0.60 -9.90 3.55 l-1.50 1.55 -0.25 21.85 c-0.15 12 -0.35 21.90 -0.40 22 -1.15 1.35 -11.80 -3.85 -15.85 -7.75 -2.80 -2.65 -4.75 -6.60 -4.75 -9.65 -0.05 -1.85 -0.10 -2.10 -0.55 -1.30 -0.30 0.50 -0.60 2 -0.60 3.35 -0.05 3.85 3.35 8.25 10.85 13.95 3.15 2.40 9.35 8.45 10.70 10.45 l0.80 1.15 0.95 -1.15 c0.90 -1.10 0.90 -2.10 0.65 -21.95z m-41.45 20.85 c1.05 -0.70 2.45 -1.85 3.15 -2.60 l1.25 -1.35 0.15 -21.70 0.15 -21.70 1.90 0 c2.45 0 11.20 4.25 14 6.75 3 2.75 4.60 5.80 4.95 9.65 l0.35 3.35 0.70 -2.80 c0.60 -2.60 0.60 -2.95 -0.40 -5.20 -1.70 -3.85 -3.30 -5.55 -9.35 -10.05 -3.10 -2.30 -7.15 -5.90 -9 -7.95 -1.85 -2.05 -3.55 -3.75 -3.80 -3.75 -0.20 0 -0.45 10.65 -0.50 23.65 l-0.15 23.60 -3.55 0.30 c-4.10 0.40 -6.90 1.65 -9.10 4.20 -2.40 2.70 -1.95 4.60 1.65 6.70 1.50 0.85 5.40 0.30 7.60 -1.10z"/>
 </g>
 <g fill="#07c9c2">
  <path d="M7.35 72.75 c-3.30 -1.15 -4.35 -2.50 -4.35 -5.55 0 -2.30 0.25 -2.95 1.60 -4.45 2.40 -2.75 7.40 -4.80 11.15 -4.60 l1.50 0.10 0.15 -23.60 0.10 -23.65 1.90 0 c1.75 0 2.20 0.35 5.30 3.75 1.85 2.05 5.90 5.65 9 7.95 5.95 4.40 7.60 6.15 9.25 9.80 1.25 2.70 1.30 5.55 0.25 9.40 -0.85 3 -2.60 4.95 -4 4.40 -0.60 -0.25 -0.70 -0.65 -0.35 -1.90 0.20 -0.90 0.40 -2.90 0.35 -4.40 0 -3.25 -1.65 -6.45 -4.75 -9.25 -1.75 -1.55 -11.35 -6.75 -12.50 -6.75 -0.25 0 -0.50 9.75 -0.55 21.70 l-0.15 21.75 -1.50 1.55 c-1.70 1.80 -3.65 2.95 -6.50 3.85 -2.50 0.80 -3.50 0.80 -5.90 -0.10z"/>
  <path d="M52.85 72.40 c-1.30 -1.95 -7.55 -8.05 -10.65 -10.40 -4.50 -3.40 -7 -5.85 -9.05 -8.90 -1.80 -2.60 -1.90 -2.90 -1.85 -6.55 0 -5.15 2.25 -9.60 4.40 -8.75 0.90 0.35 1.10 2.45 0.30 2.95 -0.90 0.55 -0.50 4.45 0.70 7.10 0.70 1.45 2.25 3.60 3.50 4.80 2.25 2.15 12.25 8.05 12.80 7.55 0.15 -0.15 0.35 -10.05 0.50 -21.95 l0.25 -21.70 1.50 -1.55 c4.20 -4.45 12.10 -5.40 15.30 -1.85 1.15 1.25 1.45 2.05 1.45 3.85 0 2.65 -1.45 5.30 -3.20 6 -0.65 0.25 -1.30 0.70 -1.40 1 -0.25 0.75 -3.60 1.45 -7.05 1.50 -2.65 0 -2.85 0.05 -2.40 0.95 0.30 0.55 0.50 9.25 0.55 22.85 0 19.20 -0.10 22.10 -0.75 23.10 -1.10 1.55 -3.85 1.50 -4.90 0z"/>
 </g>
</svg>