<?xml version="1.0" encoding="UTF-8"?>
<svg xmlns="http://www.w3.org/2000/svg" version="1.0" width="74px" height="83px" viewBox="0 0 74 83" preserveAspectRatio="xMidYMid meet" style="background: transparent;">
 
 <g fill="#07c9c2">
  <path d="M7.35 72.75 c-3.30 -1.15 -4.35 -2.50 -4.35 -5.55 0 -2.30 0.25 -2.95 1.60 -4.45 2.40 -2.75 7.40 -4.80 11.15 -4.60 l1.50 0.10 0.15 -23.60 0.10 -23.65 1.90 0 c1.75 0 2.20 0.35 5.30 3.75 1.85 2.05 5.90 5.65 9 7.95 5.95 4.40 7.60 6.15 9.25 9.80 1.25 2.70 1.30 5.55 0.25 9.40 -0.85 3 -2.60 4.95 -4 4.40 -0.60 -0.25 -0.70 -0.65 -0.35 -1.90 0.20 -0.90 0.40 -2.90 0.35 -4.40 0 -3.25 -1.65 -6.45 -4.75 -9.25 -1.75 -1.55 -11.35 -6.75 -12.50 -6.75 -0.25 0 -0.50 9.75 -0.55 21.70 l-0.15 21.75 -1.50 1.55 c-1.70 1.80 -3.65 2.95 -6.50 3.85 -2.50 0.80 -3.50 0.80 -5.90 -0.10z"/>
  <path d="M52.85 72.40 c-1.30 -1.95 -7.55 -8.05 -10.65 -10.40 -4.50 -3.40 -7 -5.85 -9.05 -8.90 -1.80 -2.60 -1.90 -2.90 -1.85 -6.55 0 -5.15 2.25 -9.60 4.40 -8.75 0.90 0.35 1.10 2.45 0.30 2.95 -0.90 0.55 -0.50 4.45 0.70 7.10 0.70 1.45 2.25 3.60 3.50 4.80 2.25 2.15 12.25 8.05 12.80 7.55 0.15 -0.15 0.35 -10.05 0.50 -21.95 l0.25 -21.70 1.50 -1.55 c4.20 -4.45 12.10 -5.40 15.30 -1.85 1.15 1.25 1.45 2.05 1.45 3.85 0 2.65 -1.45 5.30 -3.20 6 -0.65 0.25 -1.30 0.70 -1.40 1 -0.25 0.75 -3.60 1.45 -7.05 1.50 -2.65 0 -2.85 0.05 -2.40 0.95 0.30 0.55 0.50 9.25 0.55 22.85 0 19.20 -0.10 22.10 -0.75 23.10 -1.10 1.55 -3.85 1.50 -4.90 0z"/>
 </g>
</svg>